<svg width="10" height="10" viewBox="0 0 10 10" fill="none" xmlns="http://www.w3.org/2000/svg">
<path d="M9.72786 7.33899L8.33233 5.94346C7.83392 5.44506 6.98664 5.64444 6.78728 6.29234C6.63775 6.74093 6.13935 6.99013 5.69079 6.89043C4.69398 6.64123 3.34829 5.34538 3.09909 4.29873C2.94957 3.85015 3.24861 3.35174 3.69717 3.20224C4.3451 3.00288 4.54446 2.15559 4.04606 1.65719L2.65053 0.261662C2.2518 -0.0872206 1.65372 -0.0872206 1.30484 0.261662L0.35787 1.20863C-0.589097 2.20544 0.45755 4.84697 2.80005 7.18947C5.14254 9.53197 7.78408 10.6285 8.78089 9.63165L9.72786 8.68468C10.0768 8.28596 10.0768 7.68787 9.72786 7.33899Z" fill="#1882FD"/>
</svg>
