<svg width="12" height="12" viewBox="0 0 12 12" fill="none" xmlns="http://www.w3.org/2000/svg">
<g clip-path="url(#clip0)">
<path d="M0.934204 11.0864L1.6495 8.47434C1.20828 7.70984 0.976194 6.84263 0.976519 5.95419C0.977653 3.17481 3.23945 0.913574 6.01876 0.913574C7.36747 0.914142 8.63342 1.4391 9.58542 2.39191C10.5373 3.34471 11.0614 4.61123 11.0609 5.95824C11.0597 8.73755 8.79757 10.9991 6.01876 10.9991C6.01859 10.9991 6.01884 10.9991 6.01876 10.9991H6.01657C5.17271 10.9988 4.3436 10.7871 3.60715 10.3855L0.934204 11.0864ZM3.73093 9.47294L3.88406 9.56365C4.52737 9.94546 5.26496 10.1474 6.01714 10.1478H6.01876C8.32855 10.1478 10.2085 8.26812 10.2095 5.95792C10.2099 4.83837 9.77445 3.78561 8.9832 2.99371C8.19187 2.20182 7.13977 1.76546 6.0203 1.76497C3.70864 1.76497 1.82873 3.6444 1.82784 5.95452C1.82751 6.74617 2.04897 7.51707 2.46855 8.18422L2.56826 8.34277L2.14479 9.88879L3.73093 9.47294Z" fill="white"/>
<path d="M1.10956 10.9105L1.80013 8.38878C1.37406 7.65078 1.15009 6.81349 1.15033 5.95593C1.15139 3.27277 3.33496 1.08984 6.01788 1.08984C7.32007 1.09041 8.54224 1.59721 9.46108 2.51703C10.3802 3.43684 10.886 4.6595 10.8855 5.95974C10.8844 8.64299 8.70072 10.8262 6.01812 10.8262C6.01788 10.8262 6.01821 10.8262 6.01812 10.8262H6.01594C5.20134 10.8258 4.40085 10.6214 3.68993 10.2339L1.10956 10.9105Z" fill="#1882FD"/>
<path fill-rule="evenodd" clip-rule="evenodd" d="M4.75867 3.84663C4.66431 3.63684 4.56493 3.63263 4.47511 3.62898C4.40167 3.62582 4.31761 3.62598 4.23371 3.62598C4.14973 3.62598 4.01322 3.65759 3.89779 3.78364C3.78227 3.9097 3.45673 4.21449 3.45673 4.83437C3.45673 5.45434 3.90824 6.05331 3.97123 6.13745C4.03421 6.22151 4.84281 7.53424 6.12335 8.03925C7.18762 8.45899 7.40414 8.3755 7.63516 8.35451C7.86619 8.33351 8.38053 8.04971 8.48551 7.75554C8.59056 7.46136 8.59056 7.20926 8.55903 7.15648C8.5275 7.10404 8.44352 7.0725 8.31755 7.00952C8.19158 6.94653 7.57218 6.64166 7.45666 6.59967C7.34115 6.5576 7.25717 6.53668 7.17319 6.66282C7.08913 6.78879 6.84789 7.0725 6.77436 7.15648C6.70084 7.24071 6.62732 7.25125 6.50135 7.18818C6.37537 7.12503 5.96958 6.99209 5.48823 6.56287C5.11372 6.22897 4.86081 5.81652 4.78728 5.69039C4.71384 5.56442 4.78607 5.50217 4.84265 5.43334C4.94454 5.3094 5.1155 5.08656 5.15749 5.00258C5.19948 4.91844 5.17849 4.84491 5.14704 4.78185C5.1155 4.71886 4.87061 4.09582 4.75867 3.84663Z" fill="white"/>
</g>
<defs>
<clipPath id="clip0">
<rect width="10.625" height="10.625" fill="white" transform="translate(0.687439 0.6875)"/>
</clipPath>
</defs>
</svg>
